# Blender v2.78 (sub 0) OBJ File: 'bug_EnemyHead.blend'
# www.blender.org
mtllib bug_EnemyHead.mtl
o Plane_Plane.001
v 0.116309 -0.630299 0.962629
v 0.341629 -0.524898 0.907434
v 0.418903 -0.062797 0.907434
v 0.622384 -0.149111 0.907434
v 0.728850 0.028125 0.907434
v 0.589097 0.199366 0.907434
v 0.913290 0.117633 0.907434
v 0.773536 0.288874 0.907434
v 1.116594 0.348378 0.907434
v 0.895714 0.340212 0.907434
v 0.887577 0.554487 0.907434
v 1.073090 0.928714 0.907430
v 0.914804 0.774440 0.907430
v 0.857217 1.134235 0.907430
v 0.842418 0.913700 0.907430
v 0.498630 1.148942 0.907430
v 0.545357 0.932906 0.907430
v 0.236712 0.997905 0.907430
v 0.208148 0.778727 0.907430
v 0.571060 0.750880 0.907434
v 0.329912 1.371835 0.692879
v 0.276367 -1.266668 1.310904
v 0.619696 -0.470875 0.695665
v 0.771655 -0.217905 0.695665
v 1.034906 -0.090151 0.695665
v 1.325082 0.239193 0.695665
v 1.262989 1.067508 0.695659
v 0.954873 1.360848 0.695659
v 0.443061 1.381839 0.695659
v 0.548023 -0.651333 0.451826
v 0.741292 -0.329592 0.451826
v 1.076108 -0.167108 0.451826
v 1.445168 0.251768 0.451826
v 1.366196 1.305260 0.451819
v 0.687875 1.809709 0.258903
v 0.567369 1.814651 0.258903
v 0.480321 -0.718923 0.008966
v 0.701995 -0.349897 0.008966
v 1.086018 -0.163532 0.008966
v 1.509319 0.316905 0.008966
v 1.418739 1.525228 0.008958
v 0.687225 1.845096 0.201874
v 0.554399 1.850543 0.201874
v 0.714802 -0.186296 -0.641492
v 0.891675 0.108150 -0.641492
v 1.198088 0.256850 -0.641492
v 1.535840 0.640191 -0.641492
v 1.463566 1.604312 -0.641498
v 1.104933 1.945747 -0.641498
v 0.509206 1.970180 -0.641498
v 0.880925 0.100214 -1.027686
v 1.006593 0.309416 -1.027686
v 1.224298 0.415067 -1.027686
v 1.464268 0.687429 -1.027686
v 1.412919 1.372432 -1.027690
v 1.158112 1.615020 -1.027690
v 0.734851 1.632379 -1.027690
v 0.640588 0.311879 -1.447413
v 0.761881 1.152843 -1.445112
v 0.465186 0.523308 -1.701543
v 0.513179 0.567316 -1.701464
v 0.540289 0.598089 -1.701320
v 0.534085 0.680773 -1.700589
v 0.518672 0.695451 -1.699825
v 0.292577 1.563585 0.337341
v 0.895714 0.340212 0.629699
v 0.773536 0.288874 0.629699
v 0.205255 1.837384 -0.115575
v 0.440342 1.742054 -0.752680
v 0.574631 1.641145 -1.016386
v 0.887577 0.554487 0.629699
v 0.914804 0.774440 0.629696
v 0.842418 0.913700 0.629696
v 0.545357 0.932906 0.629696
v 0.571060 0.750880 0.629700
v 0.259124 0.055602 0.813722
v 0.350055 0.121431 0.813722
v 0.417587 0.225456 0.813722
v 0.266429 0.455342 0.813720
v 0.134257 0.418508 0.822703
v 0.323189 -0.585441 0.875596
v 0.489834 0.467216 -1.700477
v 0.023355 0.485127 -1.691857
v 0.554656 0.526654 -1.700477
v 0.599958 0.578071 -1.700477
v 0.590264 0.707386 -1.700478
v 0.542161 0.753181 -1.700478
v 0.057183 0.489697 -1.569621
v 0.023371 0.697723 -1.699752
v 0.057199 0.702293 -1.577516
v 0.464370 0.524772 -1.570265
v 0.512363 0.568780 -1.570186
v 0.539473 0.599553 -1.570042
v 0.533269 0.682237 -1.569311
v 0.517856 0.696915 -1.568547
v 0.974318 1.678345 0.451819
v 0.323369 1.705042 0.451819
v 0.969269 1.953145 0.008958
v 0.222651 1.983765 0.008958
v 0.917463 2.457128 -0.152228
v 0.841924 2.458920 -0.154756
v 0.917056 2.440788 -0.190997
v 0.833793 2.442762 -0.193783
v 0.982622 2.969800 -0.603510
v 0.000000 -0.449731 0.989193
v -0.116309 -0.630299 0.962629
v 0.000000 -0.228701 0.907434
v -0.341629 -0.524898 0.907434
v -0.418903 -0.062797 0.907434
v -0.622384 -0.149111 0.907434
v -0.728850 0.028125 0.907434
v -0.589097 0.199366 0.907434
v -0.913290 0.117633 0.907434
v -0.773536 0.288874 0.907434
v -1.116594 0.348378 0.907434
v -0.895714 0.340212 0.907434
v -0.887577 0.554487 0.907434
v -1.073090 0.928714 0.907430
v -0.914804 0.774440 0.907430
v -0.857217 1.134235 0.907430
v -0.842418 0.913700 0.907430
v -0.498630 1.148942 0.907430
v -0.545357 0.932906 0.907430
v -0.236712 0.997905 0.907430
v -0.208148 0.778727 0.907430
v 0.000000 0.989426 0.907430
v 0.000000 0.656472 0.907434
v -0.571060 0.750880 0.907434
v -0.329912 1.371835 0.692879
v 0.000000 1.395159 0.698322
v 0.000000 -1.003555 1.193085
v -0.276367 -1.266668 1.310904
v -0.619696 -0.470875 0.695665
v -0.771655 -0.217905 0.695665
v -1.034906 -0.090151 0.695665
v -1.325082 0.239193 0.695665
v -1.262989 1.067508 0.695659
v -0.954873 1.360848 0.695659
v -0.443061 1.381839 0.695659
v 0.000000 -0.996427 0.415485
v -0.548023 -0.651333 0.451826
v -0.741292 -0.329592 0.451826
v -1.076108 -0.167108 0.451826
v -1.445168 0.251768 0.451826
v -1.366196 1.305260 0.451819
v -0.687875 1.809709 0.258903
v -0.567369 1.814651 0.258903
v 0.000000 -1.113303 0.008966
v -0.480321 -0.718923 0.008966
v -0.701995 -0.349897 0.008966
v -1.086018 -0.163532 0.008966
v -1.509319 0.316905 0.008966
v -1.418739 1.525228 0.008958
v -0.687225 1.845096 0.201874
v -0.554399 1.850543 0.201874
v 0.000000 -0.500972 -0.641492
v -0.714802 -0.186296 -0.641492
v -0.891675 0.108150 -0.641492
v -1.198088 0.256850 -0.641492
v -1.535840 0.640191 -0.641492
v -1.463566 1.604312 -0.641498
v -1.104933 1.945747 -0.641498
v -0.509206 1.970180 -0.641498
v 0.000000 -0.123362 -1.027686
v -0.880925 0.100214 -1.027686
v -1.006593 0.309416 -1.027686
v -1.224298 0.415067 -1.027686
v -1.464268 0.687429 -1.027686
v -1.412919 1.372432 -1.027690
v -1.158112 1.615020 -1.027690
v -0.734851 1.632379 -1.027690
v 0.000000 0.181357 -1.445110
v -0.640588 0.311879 -1.447413
v -0.761881 1.152843 -1.445112
v 0.000000 0.425009 -1.700477
v -0.465186 0.523308 -1.701543
v -0.513179 0.567316 -1.701464
v -0.540289 0.598089 -1.701320
v -0.534085 0.680773 -1.700589
v -0.518672 0.695451 -1.699825
v -0.292577 1.563585 0.337341
v 0.000000 1.557647 0.337341
v -0.895714 0.340212 0.629699
v -0.773536 0.288874 0.629699
v -0.205255 1.837384 -0.115575
v 0.000000 1.818675 -0.115575
v -0.440342 1.742054 -0.752680
v 0.000000 1.723345 -0.752680
v -0.574631 1.641145 -1.016386
v 0.000000 1.622436 -1.016386
v 0.000000 1.162217 -1.452087
v 0.000000 0.759523 -1.710202
v -0.887577 0.554487 0.629699
v -0.914804 0.774440 0.629696
v -0.842418 0.913700 0.629696
v -0.545357 0.932906 0.629696
v -0.571060 0.750880 0.629700
v -0.259124 0.055602 0.813722
v -0.350055 0.121431 0.813722
v -0.417587 0.225456 0.813722
v -0.266429 0.455342 0.813720
v -0.134257 0.418508 0.822703
v 0.000000 -0.448539 0.930314
v 0.000000 -0.792451 0.926947
v 0.000000 -0.870813 0.647270
v -0.323189 -0.585441 0.875596
v 0.000000 -0.766471 0.845809
v -0.489834 0.467216 -1.700477
v -0.023355 0.485127 -1.691857
v -0.554656 0.526654 -1.700477
v -0.599958 0.578071 -1.700477
v -0.590264 0.707386 -1.700478
v -0.542161 0.753181 -1.700478
v -0.057183 0.489697 -1.569621
v -0.023371 0.697723 -1.699752
v -0.057199 0.702293 -1.577516
v -0.464370 0.524772 -1.570265
v -0.512363 0.568780 -1.570186
v -0.539473 0.599553 -1.570042
v -0.533269 0.682237 -1.569311
v -0.517856 0.696915 -1.568547
v -0.974318 1.678345 0.451819
v -0.323369 1.705042 0.451819
v -0.969269 1.953145 0.008958
v -0.222651 1.983765 0.008958
v -0.917463 2.457128 -0.152228
v -0.841924 2.458920 -0.154756
v -0.917056 2.440788 -0.190997
v -0.833793 2.442762 -0.193783
v -0.982622 2.969800 -0.603510
vn 0.3799 -0.1440 0.9137
vn 0.1651 0.0750 0.9834
vn -0.0348 0.0896 0.9954
vn 0.2165 -0.7143 0.6654
vn 0.8266 -0.4184 0.3762
vn 0.4047 0.1736 0.8978
vn 0.1960 0.3903 0.8995
vn -0.2676 -0.4592 0.8470
vn -0.7512 -0.1352 0.6460
vn -0.7237 0.0308 0.6894
vn -0.6754 0.4306 0.5987
vn 0.1938 0.4039 0.8940
vn -0.1271 0.0114 0.9918
vn -0.0767 0.1672 0.9829
vn 0.2397 -0.2988 0.9237
vn 0.2419 -0.3096 0.9196
vn 0.4195 -0.1224 0.8994
vn 0.0223 0.2804 0.9596
vn 0.0000 0.2527 0.9675
vn 0.0000 -0.2795 0.9601
vn -0.4657 0.1103 0.8780
vn 0.0000 0.1170 0.9931
vn 0.0000 -0.0802 0.9968
vn 0.0393 -0.1343 0.9901
vn 0.7432 0.2054 0.6367
vn 0.6490 -0.5296 0.5462
vn -0.0171 0.3963 0.9179
vn -0.2912 0.6256 0.7237
vn 0.0000 0.7252 0.6885
vn 0.2596 0.5882 0.7659
vn -0.2361 0.5957 0.7677
vn 0.7141 0.2724 0.6449
vn 0.7732 -0.2967 0.5604
vn 0.9199 -0.3161 0.2319
vn 0.8166 0.3656 0.4466
vn 0.3183 0.7118 0.6261
vn 0.5884 -0.6282 0.5091
vn 0.5081 -0.6673 0.5446
vn 0.7577 -0.6490 -0.0685
vn 0.6915 -0.7159 0.0959
vn 0.8742 0.4695 -0.1238
vn 0.9555 -0.2635 -0.1326
vn 0.8316 -0.2470 -0.4974
vn 0.7687 0.2924 -0.5688
vn 0.5930 -0.7871 0.1693
vn 0.0000 -1.0000 0.0017
vn -0.5112 0.5894 0.6255
vn 0.5758 -0.7946 -0.1925
vn 0.9373 -0.3470 -0.0338
vn 0.8713 0.4397 0.2177
vn 0.3366 0.9005 0.2752
vn 0.6659 -0.7324 -0.1417
vn 0.0000 -0.9749 -0.2225
vn 0.6665 -0.7184 -0.1990
vn 0.3736 0.8894 -0.2635
vn 0.4314 -0.6496 -0.6259
vn 0.2379 -0.4030 -0.8837
vn 0.3555 -0.2836 -0.8906
vn 0.5585 -0.7135 -0.4229
vn 0.6203 -0.6560 -0.4299
vn 0.6562 -0.7095 -0.2568
vn 0.5741 -0.7512 -0.3258
vn 0.0000 -0.7888 -0.6146
vn 0.6298 -0.6874 -0.3617
vn -0.6501 0.7354 0.1912
vn -0.3492 0.8492 -0.3960
vn 0.5719 -0.6852 -0.4510
vn 0.0000 -0.8043 -0.5942
vn 0.3414 0.6408 -0.6876
vn -0.0506 0.7078 -0.7046
vn 0.3345 0.1214 -0.9345
vn 0.1314 0.2752 -0.9524
vn 0.2052 0.5144 -0.8326
vn 0.3984 -0.1878 -0.8977
vn 0.0000 0.6044 -0.7967
vn 0.0000 0.8203 -0.5719
vn -0.1279 0.7378 -0.6627
vn 0.0000 -0.8007 -0.5990
vn 0.0000 -0.4253 -0.9050
vn -0.2042 0.4101 0.8889
vn 0.0000 -0.8281 0.5605
vn -0.2593 0.2560 0.9312
vn -0.5672 0.6467 0.5099
vn 0.0000 0.8790 0.4769
vn 0.0000 0.9815 0.1915
vn -0.6268 0.7792 -0.0022
vn -0.3079 0.8344 -0.4571
vn 0.0000 0.9645 -0.2639
vn -0.2284 -0.5879 -0.7760
vn -0.5448 -0.2495 -0.8006
vn -0.6928 -0.3478 -0.6317
vn -0.2798 -0.7245 -0.6299
vn -0.7237 0.0309 0.6894
vn 0.7073 0.2008 0.6777
vn 0.6039 -0.5598 0.5673
vn 0.3026 0.7577 0.5781
vn -0.4323 -0.6627 0.6115
vn -0.2557 -0.6216 0.7404
vn 0.0000 0.2427 -0.9701
vn -0.5387 0.0147 0.8423
vn 0.4213 0.2370 -0.8754
vn -0.2451 0.5708 -0.7836
vn -0.4877 0.4792 -0.7297
vn -0.5513 0.1880 -0.8128
vn 0.4475 -0.2757 -0.8507
vn 0.4612 0.6050 -0.6490
vn 0.4875 -0.6123 -0.6224
vn -0.7347 0.2354 -0.6362
vn -0.5087 0.4936 -0.7053
vn -0.3041 0.6951 -0.6514
vn 0.1065 0.7642 0.6361
vn -0.0620 0.8002 0.5965
vn -0.3154 0.8593 0.4027
vn 0.7776 0.5918 0.2122
vn -0.3799 -0.1440 0.9137
vn -0.8266 -0.4184 0.3762
vn -0.6376 -0.2208 0.7380
vn -0.3435 0.3123 0.8857
vn -0.2864 0.1518 0.9460
vn -0.4047 0.1736 0.8978
vn -0.4195 -0.1224 0.8994
vn -0.2419 -0.3096 0.9196
vn -0.2397 -0.2988 0.9237
vn 0.0767 0.1672 0.9829
vn 0.1271 0.0114 0.9918
vn -0.1938 0.4039 0.8940
vn 0.6754 0.4306 0.5987
vn 0.7237 0.0308 0.6894
vn 0.7512 -0.1352 0.6460
vn 0.2676 -0.4592 0.8470
vn -0.1960 0.3903 0.8995
vn -0.0223 0.2804 0.9596
vn 0.0171 0.3963 0.9179
vn -0.6490 -0.5296 0.5462
vn -0.7432 0.2054 0.6367
vn -0.0393 -0.1343 0.9901
vn 0.1896 0.3043 0.9335
vn 0.2912 0.6256 0.7237
vn 0.2361 0.5957 0.7677
vn -0.2596 0.5882 0.7659
vn -0.7141 0.2724 0.6449
vn -0.8166 0.3656 0.4466
vn -0.9199 -0.3161 0.2319
vn -0.7732 -0.2967 0.5604
vn -0.3183 0.7118 0.6261
vn -0.5081 -0.6673 0.5446
vn -0.5884 -0.6282 0.5091
vn -0.6915 -0.7159 0.0959
vn -0.7577 -0.6490 -0.0685
vn -0.8742 0.4695 -0.1238
vn -0.7687 0.2924 -0.5688
vn -0.8316 -0.2470 -0.4974
vn -0.9555 -0.2635 -0.1326
vn -0.5930 -0.7871 0.1693
vn 0.5112 0.5894 0.6255
vn -0.9373 -0.3470 -0.0338
vn -0.5758 -0.7946 -0.1925
vn -0.3366 0.9005 0.2752
vn -0.8713 0.4397 0.2177
vn -0.6659 -0.7324 -0.1417
vn -0.6665 -0.7184 -0.1990
vn -0.3736 0.8894 -0.2635
vn -0.4314 -0.6496 -0.6259
vn -0.6203 -0.6560 -0.4299
vn -0.5585 -0.7135 -0.4229
vn -0.3555 -0.2836 -0.8906
vn -0.2379 -0.4030 -0.8837
vn -0.5741 -0.7512 -0.3258
vn -0.6562 -0.7095 -0.2568
vn -0.6298 -0.6874 -0.3617
vn 0.6501 0.7354 0.1912
vn 0.3492 0.8492 -0.3960
vn -0.5719 -0.6852 -0.4510
vn 0.0506 0.7078 -0.7046
vn -0.3414 0.6408 -0.6876
vn -0.2052 0.5144 -0.8326
vn -0.1314 0.2752 -0.9524
vn -0.3345 0.1214 -0.9345
vn -0.3984 -0.1878 -0.8977
vn 0.1279 0.7378 -0.6627
vn 0.5672 0.6467 0.5099
vn 0.6268 0.7792 -0.0022
vn 0.3079 0.8344 -0.4571
vn 0.2284 -0.5879 -0.7760
vn 0.2798 -0.7245 -0.6299
vn 0.6928 -0.3478 -0.6317
vn 0.5448 -0.2495 -0.8006
vn 0.7237 0.0309 0.6894
vn -0.6039 -0.5598 0.5673
vn -0.7073 0.2008 0.6777
vn -0.3026 0.7577 0.5781
vn 0.4323 -0.6627 0.6115
vn -0.4213 0.2370 -0.8754
vn 0.2451 0.5708 -0.7836
vn 0.4877 0.4792 -0.7297
vn 0.5513 0.1880 -0.8128
vn -0.4475 -0.2757 -0.8507
vn -0.4612 0.6050 -0.6490
vn 0.3041 0.6951 -0.6514
vn 0.5087 0.4936 -0.7053
vn 0.7347 0.2354 -0.6362
vn -0.4875 -0.6123 -0.6224
vn -0.1065 0.7642 0.6361
vn 0.0620 0.8002 0.5965
vn 0.3154 0.8593 0.4027
vn -0.7776 0.5918 0.2122
vn -0.4874 0.6224 0.6124
vn -0.7880 -0.1518 -0.5967
vn 0.7583 0.2624 0.5968
vn 0.6691 -0.5275 -0.5235
vn 0.1535 0.7616 -0.6296
vn 0.7880 -0.1518 -0.5967
vn 0.4874 0.6224 0.6124
vn -0.7583 0.2624 0.5968
vn -0.1535 0.7616 -0.6296
vn -0.6691 -0.5275 -0.5235
vn -0.1821 0.1944 0.9639
vn -0.3224 -0.0300 0.9461
vn -0.1734 -0.2190 0.9602
vn 0.2430 -0.0612 0.9681
vn 0.0557 0.2231 0.9732
vn 0.1821 0.1944 0.9639
vn -0.0557 0.2231 0.9732
vn -0.2430 -0.0612 0.9681
vn 0.1734 -0.2190 0.9602
vn 0.3224 -0.0300 0.9461
usemtl general
s 1
f 4//1 2//2 81//3 22//4 23//5
f 12//6 14//7 15//8 13//9 11//10 10//11 8//12 6//13 3//14 4//1 5//15 7//16 9//17
f 18//18 126//19 105//20 1//21 2//2 4//1 3//14 107//22 127//23 19//24 6//13 8//12 20//25 17//26 15//8 14//7 16//27
f 126//19 18//18 21//28 130//29
f 16//27 14//7 28//30 29//31
f 27//32 26//33 33//34 34//35
f 27//32 34//35 96//36 28//30 14//7 12//6
f 7//16 5//15 24//37 25//38
f 5//15 4//1 23//5 24//37
f 24//37 23//5 30//39 31//40
f 48//41 47//42 54//43 55//44
f 25//38 24//37 31//40 32//45
f 23//5 22//4 140//46 30//39
f 29//31 28//30 96//36 97//47
f 26//33 25//38 32//45 33//34
f 33//34 32//45 39//48 40//49
f 96//36 34//35 41//50 98//51
f 32//45 31//40 38//52 39//48
f 30//39 140//46 148//53 37//54
f 98//51 41//50 48//41 49//55
f 58//56 82//57 84//58 52//59 51//60
f 39//48 38//52 45//61 46//62
f 37//54 148//53 156//63 44//64
f 99//65 98//51 49//55 50//66
f 37//54 44//64 51//60 52//59 45//61 38//52 31//40 30//39
f 46//62 45//61 52//59 53//67
f 44//64 156//63 164//68 51//60
f 50//66 49//55 56//69 57//70
f 55//44 86//71 87//72 59//73 56//69
f 49//55 48//41 55//44 56//69
f 53//67 84//58 85//74 54//43
f 85//74 86//71 55//44 54//43
f 59//73 191//75 190//76 70//77 57//70 56//69
f 40//49 47//42 48//41 41//50 34//35 33//34
f 9//17 7//16 25//38 26//33
f 51//60 164//68 172//78 58//56
f 58//56 172//78 175//79 82//57
f 131//80 1//21 203//81 204//82
f 130//29 21//28 65//83 182//84
f 186//85 182//84 65//83 68//86
f 16//27 29//31 21//28 18//18
f 186//85 68//86 69//87 188//88
f 188//88 69//87 70//77 190//76
f 46//62 53//67 54//43 47//42 40//49 39//48
f 97//47 65//83 21//28 29//31
f 99//65 68//86 65//83 97//47
f 50//66 69//87 68//86 99//65
f 57//70 70//77 69//87 50//66
f 64//89 63//90 94//91 95//92
f 10//11 11//10 71//93 66//11
f 17//26 20//25 75//94 74//95
f 20//25 8//12 67//96 75//94
f 11//10 13//9 72//9 71//93
f 8//12 10//11 66//11 67//96
f 15//8 17//26 74//95 73//97
f 13//9 15//8 73//97 72//9
f 52//59 84//58 53//67
f 22//4 205//98 140//46
f 1//21 105//20 203//81
f 191//75 59//73 87//72 192//99
f 131//80 204//82 207//100 205//98 22//4 81//3 2//2 1//21
f 9//17 26//33 27//32 12//6
f 83//101 60//102 82//57 175//79
f 60//102 61//103 84//58 82//57
f 62//104 63//90 86//71 85//74
f 63//90 64//89 87//72 86//71
f 64//89 89//105 192//99 87//72
f 89//105 83//101 175//79 192//99
f 61//103 62//104 85//74 84//58
f 88//106 90//107 95//92 94//91 93//108 92//109 91//110
f 61//103 60//102 91//110 92//109
f 83//101 89//105 90//107 88//106
f 62//104 61//103 92//109 93//108
f 89//105 64//89 95//92 90//107
f 63//90 62//104 93//108 94//91
f 60//102 83//101 88//106 91//110
f 35//111 36//112 97//47 96//36
f 43//113 42//114 98//51 99//65
f 42//114 35//111 96//36 98//51
f 36//112 43//113 99//65 97//47
f 110//115 133//116 132//117 206//118 108//119
f 118//120 115//121 113//122 111//123 110//115 109//124 112//125 114//126 116//127 117//128 119//129 121//130 120//131
f 124//132 122//133 120//131 121//130 123//134 128//135 114//126 112//125 125//136 127//23 107//22 109//124 110//115 108//119 106//137 105//20 126//19
f 126//19 130//29 129//138 124//132
f 122//133 139//139 138//140 120//131
f 137//141 145//142 144//143 136//144
f 137//141 118//120 120//131 138//140 222//145 145//142
f 113//122 135//146 134//147 111//123
f 111//123 134//147 133//116 110//115
f 134//147 142//148 141//149 133//116
f 161//150 169//151 168//152 160//153
f 135//146 143//154 142//148 134//147
f 133//116 141//149 140//46 132//117
f 139//139 223//155 222//145 138//140
f 136//144 144//143 143//154 135//146
f 144//143 152//156 151//157 143//154
f 222//145 224//158 153//159 145//142
f 143//154 151//157 150//160 142//148
f 141//149 149//161 148//53 140//46
f 224//158 162//162 161//150 153//159
f 173//163 165//164 166//165 210//166 208//167
f 151//157 159//168 158//169 150//160
f 149//161 157//170 156//63 148//53
f 225//171 163//172 162//162 224//158
f 149//161 141//149 142//148 150//160 158//169 166//165 165//164 157//170
f 159//168 167//173 166//165 158//169
f 157//170 165//164 164//68 156//63
f 163//172 171//174 170//175 162//162
f 169//151 170//175 174//176 213//177 212//178
f 162//162 170//175 169//151 161//150
f 167//173 168//152 211//179 210//166
f 211//179 168//152 169//151 212//178
f 174//176 170//175 171//174 189//180 190//76 191//75
f 152//156 144//143 145//142 153//159 161//150 160//153
f 115//121 136//144 135//146 113//122
f 165//164 173//163 172//78 164//68
f 173//163 208//167 175//79 172//78
f 131//80 204//82 203//81 106//137
f 130//29 182//84 181//181 129//138
f 186//85 185//182 181//181 182//84
f 122//133 124//132 129//138 139//139
f 186//85 188//88 187//183 185//182
f 188//88 190//76 189//180 187//183
f 159//168 151//157 152//156 160//153 168//152 167//173
f 223//155 139//139 129//138 181//181
f 225//171 223//155 181//181 185//182
f 163//172 225//171 185//182 187//183
f 171//174 163//172 187//183 189//180
f 180//184 221//185 220//186 179//187
f 116//127 183//127 193//188 117//128
f 123//134 196//189 197//190 128//135
f 128//135 197//190 184//191 114//126
f 117//128 193//188 194//129 119//129
f 114//126 184//191 183//127 116//127
f 121//130 195//192 196//189 123//134
f 119//129 194//129 195//192 121//130
f 166//165 167//173 210//166
f 132//117 140//46 205//98
f 106//137 203//81 105//20
f 191//75 192//99 213//177 174//176
f 131//80 106//137 108//119 206//118 132//117
f 115//121 118//120 137//141 136//144
f 209//193 175//79 208//167 176//194
f 176//194 208//167 210//166 177//195
f 178//196 211//179 212//178 179//187
f 179//187 212//178 213//177 180//184
f 180//184 213//177 192//99 215//197
f 215//197 192//99 175//79 209//193
f 177//195 210//166 211//179 178//196
f 214//198 217//199 218//200 219//201 220//186 221//185 216//202
f 177//195 218//200 217//199 176//194
f 209//193 214//198 216//202 215//197
f 178//196 219//201 218//200 177//195
f 215//197 216//202 221//185 180//184
f 179//187 220//186 219//201 178//196
f 176//194 217//199 214//198 209//193
f 146//203 222//145 223//155 147//204
f 155//205 225//171 224//158 154//206
f 154//206 224//158 222//145 146//203
f 147//204 223//155 225//171 155//205
usemtl feelers
f 43//113 36//112 101//207 103//208
f 100//209 102//210 104//211
f 42//114 43//113 103//208 102//210
f 35//111 42//114 102//210 100//209
f 36//112 35//111 100//209 101//207
f 101//207 100//209 104//211
f 103//208 101//207 104//211
f 102//210 103//208 104//211
f 155//205 229//212 227//213 147//204
f 226//214 230//215 228//216
f 154//206 228//216 229//212 155//205
f 146//203 226//214 228//216 154//206
f 147//204 227//213 226//214 146//203
f 227//213 230//215 226//214
f 229//212 230//215 227//213
f 228//216 230//215 229//212
usemtl innerNose
f 77//217 78//218 79//219 80//220 76//221
f 199//222 198//223 202//224 201//225 200//226
usemtl outerNose
f 19//24 79//219 78//218 6//13
f 107//22 76//221 80//220 127//23
f 6//13 78//218 77//217 3//14
f 127//23 80//220 79//219 19//24
f 3//14 77//217 76//221 107//22
f 125//136 112//125 200//226 201//225
f 107//22 127//23 202//224 198//223
f 112//125 109//124 199//222 200//226
f 127//23 125//136 201//225 202//224
f 109//124 107//22 198//223 199//222
usemtl eyes
f 66//11 71//93 72//9 73//97 74//95 75//94 67//96
f 183//127 184//191 197//190 196//189 195//192 194//129 193//188
