# Blender v2.78 (sub 0) OBJ File: 'robot_EnemyHead.blend'
# www.blender.org
mtllib robot_EnemyHead.mtl
o Plane.001
v 1.305506 5.844399 5.341363
v 5.363560 7.420382 1.820792
v 3.090234 0.547043 5.027203
v 7.148288 2.123026 1.506632
vn -0.6108 -0.1598 -0.7755
usemtl Material.003
s off
f 1//1 2//1 4//1 3//1
o Plane
v 0.163554 0.001645 -0.005852
v 0.163554 0.315164 -0.005852
v 0.236098 0.170725 -0.005852
v 0.262099 0.404157 -0.015185
v 0.403833 0.176067 -0.005852
v 0.322688 0.478902 -0.005852
v 0.548300 0.239122 -0.009526
v 0.902145 0.284661 -0.009526
v 0.681239 0.507013 -0.002178
v 0.681239 0.919475 -0.002178
v 0.892818 1.222964 -0.009526
v 0.690566 0.983520 -0.002178
v 0.511737 1.567274 -0.009526
v 0.309484 1.327830 -0.002178
v 0.297048 0.135306 -0.238279
v 0.491473 0.141497 -0.238279
v 0.658928 0.214586 -0.242538
v 1.287714 0.205512 -0.183616
v 1.276904 1.293118 -0.183616
v 0.835184 1.692215 -0.183616
v 1.398205 0.192324 -0.464426
v 1.384073 1.347712 -0.464426
v 0.806676 1.869395 -0.464426
v 1.475246 0.196586 -0.844156
v 1.458398 1.382136 -0.844156
v 0.770007 2.004104 -0.844156
v 1.446350 1.393896 -1.341917
v 0.920480 1.869024 -1.341917
v 1.422192 0.779949 -1.846936
v 1.413986 1.357358 -1.846936
v 1.078713 1.660280 -1.846936
v 0.950421 0.800534 -2.369955
v 0.948328 0.947803 -2.369955
v 0.862816 1.025064 -2.369955
v 0.212960 -0.026124 -0.824881
v 0.297048 0.135306 -0.824881
v 0.491473 0.141497 -0.824881
v 0.658928 0.214586 -0.829140
v 0.212960 -0.026124 -0.238279
v 0.150721 0.548165 -1.844741
v 0.234808 0.709595 -1.844741
v 0.429233 0.715787 -1.844741
v 0.596688 0.788875 -1.849000
v 0.373251 0.709280 -2.432064
v 0.407254 0.774559 -2.432064
v 0.485876 0.777062 -2.432064
v 0.553591 0.806618 -2.433786
v 0.237048 1.574153 -0.000691
v 0.361753 1.029596 -2.358365
v 0.301440 1.570845 -0.004939
v 0.561325 1.026858 -2.365368
v 0.163554 0.315164 -0.005852
v 0.262099 0.404157 -0.015185
v 0.322688 0.478902 -0.005852
v 0.681239 0.507013 -0.002178
v 0.681239 0.919475 -0.002178
v 0.690566 0.983520 -0.002178
v 0.309484 1.327830 -0.002178
v 0.222960 0.451144 0.092059
v 0.289357 0.511105 0.085771
v 0.330180 0.561466 0.092059
v 0.571761 0.580406 0.094535
v 0.571761 0.858311 0.094535
v 0.578045 0.901462 0.094535
v 0.321283 1.133448 0.094535
v 0.320938 0.932476 0.180456
v 0.449164 0.816622 0.180456
v 0.446026 0.795073 0.180456
v 0.446026 0.656287 0.180456
v 0.325381 0.646829 0.179219
v 0.304994 0.621679 0.176079
v 0.271836 0.591734 0.179219
v 0.251148 0.828248 0.229175
v 0.293296 0.790167 0.229175
v 0.292264 0.783084 0.229175
v 0.292264 0.737465 0.229175
v 0.252608 0.734356 0.228769
v 0.245907 0.726089 0.227737
v 0.235008 0.716246 0.228769
v 0.000000 0.001645 -0.005852
v -0.163554 0.001645 -0.005852
v 0.000000 0.315164 -0.005852
v -0.163554 0.315164 -0.005852
v -0.236098 0.170725 -0.005852
v -0.262099 0.404157 -0.015185
v -0.403833 0.176067 -0.005852
v -0.322688 0.478902 -0.005852
v -0.548300 0.239122 -0.009526
v -0.902145 0.284661 -0.009526
v -0.681239 0.507013 -0.002178
v -0.681239 0.919475 -0.002178
v -0.892818 1.222964 -0.009526
v -0.690566 0.983520 -0.002178
v -0.511737 1.567274 -0.009526
v -0.309484 1.327830 -0.002178
v 0.000000 1.576097 -0.009526
v 0.000000 1.336653 -0.002177
v -0.297048 0.135306 -0.238279
v -0.491473 0.141497 -0.238279
v -0.658928 0.214586 -0.242538
v -1.287714 0.205512 -0.183616
v -1.276904 1.293118 -0.183616
v -0.835184 1.692215 -0.183616
v -1.398205 0.192324 -0.464426
v -1.384073 1.347712 -0.464426
v -0.806676 1.869395 -0.464426
v 0.000000 1.882764 -0.464426
v -1.475246 0.196586 -0.844156
v -1.458398 1.382136 -0.844156
v -0.770007 2.004104 -0.844156
v 0.000000 2.020043 -0.844156
v -1.446350 1.393896 -1.341917
v -0.920480 1.869024 -1.341917
v 0.000000 1.881200 -1.341916
v -1.422192 0.779949 -1.846936
v -1.413986 1.357358 -1.846936
v -1.078713 1.660280 -1.846936
v 0.000000 1.668043 -1.846936
v -0.950421 0.800534 -2.369955
v -0.948328 0.947803 -2.369955
v -0.862816 1.025064 -2.369955
v 0.000000 1.027044 -2.369955
v -0.212960 -0.026124 -0.824881
v -0.297048 0.135306 -0.824881
v -0.491473 0.141497 -0.824881
v -0.658928 0.214586 -0.829140
v -0.212960 -0.026124 -0.238279
v 0.000000 -0.024554 -0.595314
v -0.150721 0.548165 -1.844741
v -0.234808 0.709595 -1.844741
v -0.429233 0.715787 -1.844741
v -0.596688 0.788875 -1.849000
v 0.000000 0.551566 -1.632789
v -0.373251 0.709280 -2.432064
v -0.407254 0.774559 -2.432064
v -0.485876 0.777062 -2.432064
v -0.553591 0.806618 -2.433786
v 0.000000 0.775365 -2.328269
v -0.237048 1.574153 -0.000691
v -0.361753 1.029596 -2.358365
v -0.301440 1.570845 -0.004939
v -0.561325 1.026858 -2.365368
v 0.000000 0.315164 -0.005852
v -0.163554 0.315164 -0.005852
v -0.262099 0.404157 -0.015185
v -0.322688 0.478902 -0.005852
v -0.681239 0.507013 -0.002178
v -0.681239 0.919475 -0.002178
v -0.690566 0.983520 -0.002178
v -0.309484 1.327830 -0.002178
v 0.000000 1.336653 -0.002177
v 0.000000 0.451144 0.092059
v -0.222960 0.451144 0.092059
v -0.289357 0.511105 0.085771
v -0.330180 0.561466 0.092059
v -0.571761 0.580406 0.094535
v -0.571761 0.858311 0.094535
v -0.578045 0.901462 0.094535
v -0.321283 1.133448 0.094535
v 0.000000 1.139393 0.094535
v 0.000000 0.935444 0.180456
v -0.320938 0.932476 0.180456
v -0.449164 0.816622 0.180456
v -0.446026 0.795073 0.180456
v -0.446026 0.656287 0.180456
v -0.325381 0.646829 0.179219
v -0.304994 0.621679 0.176079
v -0.271836 0.591734 0.179219
v 0.000000 0.591734 0.179219
v 0.000000 0.829224 0.229175
v -0.251148 0.828248 0.229175
v -0.293296 0.790167 0.229175
v -0.292264 0.783084 0.229175
v -0.292264 0.737465 0.229175
v -0.252608 0.734356 0.228769
v -0.245907 0.726089 0.227737
v -0.235008 0.716246 0.228769
v 0.000000 0.716246 0.228769
vn 0.9094 0.4056 0.0920
vn 0.6959 -0.7055 -0.1343
vn 0.7351 -0.5085 -0.4484
vn 0.8267 0.3813 -0.4138
vn 0.9071 0.4179 -0.0500
vn 0.1668 -0.5230 0.8358
vn 0.1733 -0.5942 0.7854
vn 0.1792 -0.9740 0.1382
vn 0.5637 -0.6186 0.5473
vn 0.1289 -0.6547 0.7448
vn 0.2373 -0.9643 0.1176
vn 0.3960 -0.5442 0.7396
vn 0.5148 -0.8480 0.1260
vn 0.3630 -0.6545 0.6632
vn 0.5236 -0.8459 0.1016
vn 0.8692 0.3943 0.2984
vn 0.9602 0.0117 0.2790
vn 0.3416 0.6827 0.6459
vn 0.6923 0.3000 0.6563
vn 0.3437 0.8569 0.3840
vn 0.3104 0.9488 0.0590
vn -0.0531 0.4083 -0.9113
vn -0.0005 0.4322 -0.9017
vn 0.1376 -0.4969 -0.8568
vn 0.1303 -0.6175 -0.7757
vn 0.3604 -0.6580 -0.6611
vn 0.4445 -0.5973 -0.6676
vn 0.3633 0.9096 -0.2013
vn 0.3639 0.7822 -0.5057
vn 0.4348 0.2083 -0.8761
vn 0.1738 0.4146 -0.8932
vn 0.2081 -0.9469 -0.2449
vn 0.1874 -0.9461 -0.2641
vn 0.3001 -0.9046 -0.3025
vn 0.5532 -0.7971 -0.2420
vn 0.0000 -0.6925 0.7213
vn 0.0000 -0.9959 -0.0897
vn 0.1800 -0.9466 -0.2674
vn 0.0000 -0.8968 -0.4424
vn 0.2842 -0.9045 -0.3180
vn 0.5449 -0.8191 -0.1792
vn 0.2028 -0.9315 -0.3019
vn 0.0000 -0.5529 -0.8332
vn 0.3493 -0.5973 -0.7220
vn 0.0000 0.3583 -0.9336
vn 0.0057 0.0024 1.0000
vn 0.0047 0.0020 1.0000
vn 0.2344 0.0983 0.9671
vn 0.3717 -0.0351 0.9277
vn 0.0056 0.0024 1.0000
vn 0.0049 0.0021 1.0000
vn 0.2664 -0.4171 0.8690
vn 0.3483 -0.3439 0.8720
vn 0.0051 0.0022 1.0000
vn 0.0000 0.0025 1.0000
vn 0.0000 0.2256 0.9742
vn 0.0654 0.2028 0.9770
vn 0.0050 0.0022 1.0000
vn 0.0873 -0.2986 0.9503
vn 0.0040 0.0017 1.0000
vn 0.1672 -0.1468 0.9749
vn 0.0000 -0.3070 0.9517
vn -0.9094 0.4056 0.0920
vn -0.9071 0.4179 -0.0500
vn -0.8267 0.3813 -0.4138
vn -0.7351 -0.5085 -0.4484
vn -0.6959 -0.7055 -0.1343
vn -0.1668 -0.5230 0.8358
vn -0.5637 -0.6186 0.5473
vn -0.1792 -0.9740 0.1382
vn -0.1733 -0.5942 0.7854
vn -0.2373 -0.9643 0.1176
vn -0.1289 -0.6547 0.7448
vn -0.5148 -0.8480 0.1260
vn -0.3960 -0.5442 0.7396
vn -0.5236 -0.8459 0.1016
vn -0.3630 -0.6545 0.6632
vn -0.8692 0.3943 0.2984
vn -0.9602 0.0117 0.2790
vn -0.3416 0.6827 0.6459
vn -0.3437 0.8569 0.3840
vn -0.6923 0.3000 0.6563
vn -0.3104 0.9488 0.0590
vn 0.0531 0.4083 -0.9113
vn -0.4445 -0.5973 -0.6676
vn -0.3604 -0.6580 -0.6611
vn -0.1303 -0.6175 -0.7757
vn -0.1376 -0.4969 -0.8568
vn 0.0005 0.4322 -0.9017
vn -0.3633 0.9096 -0.2013
vn -0.3639 0.7822 -0.5057
vn -0.1738 0.4146 -0.8932
vn -0.4348 0.2083 -0.8761
vn -0.1874 -0.9461 -0.2641
vn -0.2081 -0.9469 -0.2449
vn -0.5532 -0.7971 -0.2420
vn -0.3001 -0.9046 -0.3025
vn -0.1800 -0.9466 -0.2674
vn -0.2842 -0.9045 -0.3180
vn -0.2028 -0.9315 -0.3019
vn -0.5449 -0.8191 -0.1792
vn -0.3493 -0.5973 -0.7220
vn -0.0057 0.0024 1.0000
vn -0.3717 -0.0351 0.9277
vn -0.2344 0.0983 0.9671
vn -0.0047 0.0020 1.0000
vn -0.0056 0.0024 1.0000
vn -0.3483 -0.3439 0.8720
vn -0.2664 -0.4171 0.8690
vn -0.0049 0.0021 1.0000
vn -0.0051 0.0022 1.0000
vn -0.0654 0.2028 0.9770
vn -0.0050 0.0022 1.0000
vn -0.0873 -0.2986 0.9503
vn -0.0040 0.0017 1.0000
vn -0.1672 -0.1468 0.9749
vn 0.0000 0.4173 0.9087
vn 0.1963 0.4219 0.8851
vn 0.5378 0.1591 0.8279
vn 0.6268 -0.0456 0.7778
vn 0.3924 -0.4214 0.8176
vn 0.3455 -0.6890 0.6371
vn 0.6168 -0.5868 0.5245
vn 0.3212 -0.6164 0.7189
vn 0.0000 -0.5559 0.8312
vn 0.4676 -0.4472 0.7624
vn 0.2979 -0.4840 0.8228
vn 0.1794 0.3653 0.9134
vn 0.4195 0.1122 0.9008
vn 0.4384 -0.0273 0.8983
vn 0.2911 -0.3547 0.8885
vn 0.1843 -0.5209 0.8335
vn 0.0000 -0.4501 0.8930
vn 0.0000 0.4050 0.9143
vn 0.1526 -0.1624 0.9748
vn 0.1053 -0.1998 0.9742
vn 0.1149 -0.2012 0.9728
vn 0.0791 -0.2006 0.9764
vn 0.1814 0.0828 0.9799
vn 0.1536 -0.0121 0.9880
vn 0.0000 0.2133 0.9770
vn 0.0696 0.2202 0.9730
vn 0.0000 -0.1901 0.9817
vn -0.1963 0.4219 0.8851
vn -0.6268 -0.0456 0.7778
vn -0.5378 0.1591 0.8279
vn -0.3455 -0.6890 0.6371
vn -0.3924 -0.4214 0.8176
vn -0.3212 -0.6164 0.7189
vn -0.6168 -0.5868 0.5245
vn -0.2979 -0.4840 0.8228
vn -0.4676 -0.4472 0.7624
vn -0.4195 0.1122 0.9008
vn -0.1794 0.3653 0.9134
vn -0.2911 -0.3547 0.8885
vn -0.4384 -0.0273 0.8983
vn -0.1843 -0.5209 0.8335
vn -0.1053 -0.1998 0.9742
vn -0.1526 -0.1624 0.9748
vn -0.0791 -0.2006 0.9764
vn -0.1149 -0.2012 0.9728
vn -0.1536 -0.0121 0.9880
vn -0.1814 0.0828 0.9799
vn -0.0696 0.2202 0.9730
vn 0.2412 0.1340 0.9611
vn 0.0774 0.4665 0.8811
vn 0.0106 0.4733 0.8808
vn 0.0000 0.4826 0.8758
vn 0.0000 0.8018 -0.5976
vn 0.0000 0.9460 -0.3241
vn 0.0000 0.9992 0.0383
vn 0.0000 0.8941 0.4477
vn 0.0070 0.8328 0.5535
vn -0.0106 0.4733 0.8808
vn -0.0774 0.4665 0.8811
vn -0.2412 0.1340 0.9611
vn -0.0070 0.8328 0.5535
usemtl Material.002
s 1
f 29//2 28//3 33//4 34//5 31//6
f 12//7 11//8 21//9 22//10
f 11//8 9//11 20//12 21//9
f 9//11 7//13 19//14 20//12
f 7//13 5//15 43//16 19//14
f 26//17 25//18 28//3 29//2
f 24//19 23//20 26//17 27//21
f 27//21 26//17 29//2 30//22
f 53//23 55//24 51//25 50//26 49//27 48//28
f 30//22 29//2 31//6 32//29
f 32//29 31//6 34//5 35//30
f 23//20 22//10 25//18 26//17
f 35//30 34//5 37//31 38//32
f 21//9 20//12 41//33 42//34
f 19//14 43//16 39//35 40//36
f 22//10 21//9 42//34 28//3
f 20//12 19//14 40//36 41//33
f 5//15 84//37 132//38 39//35 43//16
f 28//3 42//34 47//39 33//4
f 39//35 132//38 137//40 44//41
f 41//33 40//36 45//42 46//43
f 42//34 41//33 46//43 47//39
f 40//36 39//35 44//41 45//42
f 44//41 137//40 142//44 48//28
f 47//39 46//43 50//26 51//25
f 33//4 47//39 51//25 36//45
f 45//42 44//41 48//28 49//27
f 46//43 45//42 49//27 50//26
f 53//23 48//28 142//44 126//46
f 33//4 36//45 37//31 34//5
f 36//45 51//25 55//24 38//32 37//31
f 14//47 16//48 61//49 60//50
f 8//51 10//52 58//53 57//54
f 18//55 101//56 155//57 62//58
f 6//59 8//51 57//54 56//60
f 13//61 14//47 60//50 59//62
f 10//52 13//61 59//62 58//53
f 16//48 18//55 62//58 61//49
f 86//56 6//59 56//60 147//63
f 113//64 116//65 120//66 119//67 112//68
f 93//69 105//70 104//71 92//72
f 92//72 104//71 103//73 90//74
f 90//74 103//73 102//75 88//76
f 88//76 102//75 131//77 85//78
f 109//79 113//64 112//68 108//80
f 107//81 110//82 109//79 106//83
f 110//82 114//84 113//64 109//79
f 144//85 138//86 139//87 140//88 141//89 146//90
f 114//84 117//91 116//65 113//64
f 117//91 121//92 120//66 116//65
f 106//83 109//79 108//80 105//70
f 121//92 125//93 124//94 120//66
f 104//71 130//95 129//96 103//73
f 102//75 128//97 127//98 131//77
f 105//70 112//68 130//95 104//71
f 103//73 129//96 128//97 102//75
f 85//78 131//77 127//98 132//38 84//37
f 112//68 119//67 136//99 130//95
f 127//98 133//100 137//40 132//38
f 129//96 135//101 134//102 128//97
f 130//95 136//99 135//101 129//96
f 128//97 134//102 133//100 127//98
f 133//100 138//86 142//44 137//40
f 136//99 141//89 140//88 135//101
f 119//67 123//103 141//89 136//99
f 134//102 139//87 138//86 133//100
f 135//101 140//88 139//87 134//102
f 144//85 126//46 142//44 138//86
f 119//67 120//66 124//94 123//103
f 123//103 124//94 125//93 146//90 141//89
f 95//104 152//105 153//106 97//107
f 89//108 149//109 150//110 91//111
f 99//112 154//113 155//57 101//56
f 87//114 148//115 149//109 89//108
f 94//116 151//117 152//105 95//104
f 91//111 150//110 151//117 94//116
f 97//107 153//106 154//113 99//112
f 86//56 147//63 148//115 87//114
usemtl lens
f 62//58 155//57 164//118 69//119
f 60//50 61//49 68//120 67//121
f 58//53 59//62 66//122 65//123
f 56//60 57//54 64//124 63//125
f 61//49 62//58 69//119 68//120
f 59//62 60//50 67//121 66//122
f 57//54 58//53 65//123 64//124
f 147//63 56//60 63//125 156//126
f 63//125 64//124 75//127 76//128
f 68//120 69//119 70//129 71//130
f 66//122 67//121 72//131 73//132
f 64//124 65//123 74//133 75//127
f 156//126 63//125 76//128 173//134
f 69//119 164//118 165//135 70//129
f 67//121 68//120 71//130 72//131
f 65//123 66//122 73//132 74//133
f 76//128 75//127 82//136 83//137
f 74//133 73//132 80//138 81//139
f 72//131 71//130 78//140 79//141
f 70//129 165//135 174//142 77//143
f 173//134 76//128 83//137 182//144
f 75//127 74//133 81//139 82//136
f 73//132 72//131 79//141 80//138
f 71//130 70//129 77//143 78//140
f 174//142 182//144 83//137 82//136 81//139 80//138 79//141 78//140 77//143
f 154//113 163//145 164//118 155//57
f 152//105 161//146 162//147 153//106
f 150//110 159//148 160//149 151//117
f 148//115 157//150 158//151 149//109
f 153//106 162//147 163//145 154//113
f 151//117 160//149 161//146 152//105
f 149//109 158//151 159//148 150//110
f 147//63 156//126 157//150 148//115
f 157//150 172//152 171//153 158//151
f 162//147 167//154 166//155 163//145
f 160//149 169//156 168//157 161//146
f 158//151 171//153 170//158 159//148
f 156//126 173//134 172//152 157//150
f 163//145 166//155 165//135 164//118
f 161//146 168//157 167//154 162//147
f 159//148 170//158 169//156 160//149
f 172//152 181//159 180//160 171//153
f 170//158 179//161 178//162 169//156
f 168//157 177//163 176//164 167//154
f 166//155 175//165 174//142 165//135
f 173//134 182//144 181//159 172//152
f 171//153 180//160 179//161 170//158
f 169//156 178//162 177//163 168//157
f 167//154 176//164 175//165 166//155
f 174//142 175//165 176//164 177//163 178//162 179//161 180//160 181//159 182//144
usemtl primaryColor
f 5//15 7//13 9//11 11//8 12//7 15//166 17//167 54//168 100//169 101//56 18//55 16//48 14//47 13//61 10//52 8//51 6//59 86//56 84//37
f 122//170 35//30 38//32 55//24 53//23 126//46
f 17//167 15//166 23//20 24//19
f 118//171 32//29 35//30 122//170
f 12//7 22//10 23//20 15//166
f 115//172 30//22 32//29 118//171
f 24//19 27//21 111//173 100//169 52//174 54//168 17//167
f 111//173 27//21 30//22 115//172
f 85//78 84//37 86//56 87//114 89//108 91//111 94//116 95//104 97//107 99//112 101//56 100//169 145//175 98//176 96//177 93//69 92//72 90//74 88//76
f 122//170 126//46 144//85 146//90 125//93 121//92
f 98//176 107//81 106//83 96//177
f 118//171 122//170 121//92 117//91
f 93//69 96//177 106//83 105//70
f 115//172 118//171 117//91 114//84
f 107//81 98//176 145//175 143//178 100//169 111//173 110//82
f 111//173 115//172 114//84 110//82
